<?xml version="1.0" standalone="no"?>
<!DOCTYPE svg PUBLIC "-//W3C//DTD SVG 20010904//EN"
 "http://www.w3.org/TR/2001/REC-SVG-20010904/DTD/svg10.dtd">
<svg version="1.0" xmlns="http://www.w3.org/2000/svg"
 width="474.000000pt" height="418.000000pt" viewBox="0 0 474.000000 418.000000"
 preserveAspectRatio="xMidYMid meet">

<g transform="translate(0.000000,418.000000) scale(0.100000,-0.100000)"
fill="#000000" stroke="none">
<path d="M2135 3494 c-196 -40 -378 -107 -474 -174 -14 -10 -59 -40 -100 -66
-91 -60 -217 -183 -297 -289 -32 -44 -62 -82 -65 -85 -12 -9 -76 -144 -102
-215 -64 -171 -79 -242 -84 -405 -3 -87 -1 -193 5 -242 11 -86 57 -239 112
-368 56 -133 201 -328 318 -426 31 -27 59 -51 62 -54 17 -21 149 -103 225
-142 136 -68 195 -87 390 -123 161 -30 385 -14 570 42 60 18 258 109 300 138
129 88 283 231 366 341 45 58 119 176 119 188 0 3 12 30 26 59 74 152 114 338
114 537 0 149 -17 262 -58 385 -34 101 -112 256 -169 335 -79 110 -220 252
-308 310 -27 18 -59 41 -71 52 -31 27 -206 111 -309 147 -137 47 -229 61 -400
60 -82 -1 -159 -3 -170 -5z m407 -34 c83 -17 168 -41 213 -60 92 -38 221 -107
275 -147 36 -26 76 -55 90 -64 14 -9 57 -50 97 -90 99 -102 104 -108 142 -164
18 -27 44 -63 57 -80 13 -18 21 -35 17 -38 -3 -4 -1 -7 5 -7 7 0 12 -7 12 -16
0 -9 9 -27 20 -41 11 -14 20 -34 20 -44 0 -11 5 -19 11 -19 6 0 9 -6 6 -14 -3
-8 -1 -16 4 -18 5 -2 11 -14 12 -28 1 -14 8 -35 14 -46 7 -12 9 -24 6 -28 -3
-3 -2 -6 3 -6 9 0 13 -18 15 -67 1 -13 5 -21 9 -18 5 3 6 -5 2 -17 -4 -16 -2
-19 9 -13 11 7 11 5 -1 -10 -9 -10 -11 -20 -5 -22 16 -5 9 -285 -9 -398 -26
-155 -93 -337 -169 -460 -48 -78 -150 -197 -240 -281 -79 -73 -186 -154 -205
-154 -5 0 -17 -9 -27 -20 -9 -10 -20 -19 -24 -18 -3 1 -37 -13 -75 -30 -38
-18 -74 -32 -81 -32 -6 0 -15 -3 -19 -7 -18 -19 -162 -56 -260 -68 -41 -5 -55
-10 -45 -16 11 -7 11 -9 -3 -9 -10 0 -18 4 -18 8 0 5 -12 7 -27 6 -74 -8 -182
-10 -178 -4 6 10 -102 23 -116 14 -7 -4 -9 -3 -6 3 8 12 -69 27 -85 17 -7 -4
-8 -2 -4 4 5 8 -3 12 -23 12 -16 0 -33 5 -36 11 -4 6 -13 8 -21 5 -8 -3 -14 0
-14 6 0 6 -3 8 -7 5 -3 -4 -12 -2 -20 4 -7 6 -13 8 -13 4 0 -4 -11 0 -25 9
-14 9 -25 14 -25 12 0 -13 -231 120 -250 143 -3 3 -31 26 -63 50 -31 24 -85
76 -120 115 -34 39 -64 73 -68 76 -40 37 -176 284 -193 355 -2 6 -6 17 -9 25
-4 8 -19 56 -33 105 -25 84 -27 103 -28 290 -1 180 1 209 23 295 37 147 115
327 182 422 126 179 254 296 456 416 96 58 180 89 348 132 96 25 129 28 260
28 107 0 175 -5 237 -18z m1055 -1142 c-3 -7 -5 -2 -5 12 0 14 2 19 5 13 2 -7
2 -19 0 -25z m10 -110 c-3 -8 -6 -5 -6 6 -1 11 2 17 5 13 3 -3 4 -12 1 -19z
m-10 -130 c-3 -8 -6 -5 -6 6 -1 11 2 17 5 13 3 -3 4 -12 1 -19z"/>
<path d="M2235 3384 c-5 -1 -36 -5 -68 -9 -31 -4 -55 -10 -52 -14 2 -5 -7 -6
-22 -3 -14 3 -24 1 -20 -4 3 -5 -14 -9 -36 -9 -54 -1 -131 -26 -238 -79 -128
-64 -203 -119 -315 -230 -109 -110 -140 -150 -204 -271 -23 -44 -48 -89 -55
-100 -21 -34 -47 -125 -41 -141 3 -8 2 -13 -3 -10 -10 7 -26 -46 -42 -138 -15
-87 -7 -349 10 -370 7 -8 9 -21 5 -27 -5 -8 -3 -9 5 -4 9 5 12 2 9 -11 -3 -11
2 -31 9 -46 7 -15 12 -31 11 -35 -2 -7 7 -36 32 -98 13 -33 23 -60 24 -65 2
-13 52 -106 64 -118 6 -7 12 -19 12 -27 0 -7 3 -15 8 -17 4 -2 28 -32 54 -68
58 -81 183 -203 267 -259 144 -98 361 -180 516 -196 33 -3 75 -8 94 -11 l34
-4 -5 102 c-4 94 -8 109 -42 176 -38 76 -47 88 -110 158 -25 28 -48 44 -63 44
-13 0 -23 -3 -23 -7 0 -5 -36 -8 -79 -8 -43 0 -77 3 -74 8 4 6 -24 11 -69 10
-10 0 -18 4 -18 8 0 4 -15 11 -32 15 -100 21 -242 148 -301 267 -37 75 -70
201 -81 302 -4 32 -9 69 -12 82 -6 22 -4 23 64 23 169 0 390 -91 496 -205 72
-78 143 -195 131 -215 -4 -6 -2 -10 4 -10 6 0 7 -7 4 -17 -4 -9 -2 -14 3 -10
6 3 8 -29 6 -86 l-4 -92 61 -62 c34 -34 61 -64 61 -68 0 -4 6 -13 13 -20 25
-29 35 -42 46 -63 6 -12 15 -22 19 -22 4 0 6 98 4 217 -2 169 -7 225 -19 253
-28 66 -38 85 -44 90 -3 3 -12 16 -19 29 -15 28 -56 76 -124 143 -36 36 -54
46 -70 42 -28 -7 -98 19 -141 52 -42 32 -69 74 -95 148 l-19 56 22 1 c94 4
187 -24 230 -69 30 -31 51 -79 48 -106 -3 -23 18 -76 31 -76 26 0 178 -179
178 -210 0 -5 5 -12 11 -16 8 -5 10 30 8 123 -4 125 -5 131 -34 174 -16 24
-47 61 -67 82 -21 21 -38 42 -38 47 0 6 -15 11 -32 11 l-33 2 30 5 c23 4 12 8
-49 18 -93 17 -123 36 -158 101 -28 52 -56 149 -46 159 10 10 120 -16 167 -39
25 -12 57 -39 72 -60 30 -41 34 -51 43 -108 5 -25 24 -54 71 -104 36 -37 65
-74 65 -82 0 -7 5 -13 10 -13 12 0 12 15 1 126 -8 79 -10 83 -106 245 -54 90
-106 179 -117 197 -10 18 -25 44 -34 57 -15 24 -14 26 32 80 94 110 172 154
264 148 83 -6 143 -46 252 -173 11 -13 -3 -42 -92 -190 -167 -277 -157 -255
-159 -359 -1 -50 0 -91 3 -91 2 0 31 27 63 61 44 47 60 72 69 108 13 60 38 96
88 129 53 36 81 48 138 61 59 14 65 14 50 -1 -16 -16 -15 -41 1 -33 6 4 5 1
-3 -7 -9 -7 -24 -35 -35 -63 -26 -71 -78 -119 -150 -140 -39 -12 -60 -14 -63
-7 -2 6 -30 -19 -63 -54 -38 -41 -59 -71 -55 -80 3 -8 2 -13 -2 -10 -19 12
-43 -74 -44 -156 -1 -160 3 -173 37 -115 10 17 51 64 90 102 66 66 71 74 82
134 7 36 22 76 36 95 38 49 128 88 215 94 l74 5 -24 -39 c-14 -22 -28 -52 -32
-68 -4 -16 -28 -50 -54 -77 -41 -42 -57 -51 -126 -69 -56 -15 -90 -31 -118
-54 -38 -33 -138 -168 -138 -188 0 -5 -7 -16 -15 -24 -8 -8 -19 -32 -24 -52
-12 -42 -13 -389 -2 -442 l7 -34 29 49 c15 28 55 79 87 115 55 61 58 67 58
117 0 65 30 182 66 259 25 54 110 155 164 195 48 36 191 109 215 109 8 0 16 4
19 8 8 14 136 32 205 30 47 -2 65 -7 68 -18 4 -12 3 -13 -5 -1 -15 21 -20 -16
-9 -59 6 -24 6 -35 -2 -38 -6 -2 -8 -8 -5 -14 3 -5 0 -26 -8 -46 -8 -21 -23
-62 -33 -92 -34 -109 -78 -185 -152 -263 -52 -56 -156 -127 -184 -127 -10 0
-20 -4 -23 -9 -3 -5 -22 -12 -41 -15 -20 -4 -33 -11 -30 -16 3 -4 -5 -6 -17
-2 -16 4 -19 2 -13 -8 6 -9 4 -11 -5 -5 -7 4 -50 8 -96 8 -46 0 -84 2 -84 4 0
20 24 40 49 41 16 0 80 17 140 36 61 20 116 36 123 36 7 0 32 7 56 16 42 17
53 41 16 37 -10 -1 -46 -3 -79 -3 -131 -4 -234 -58 -356 -187 -70 -74 -130
-169 -133 -208 0 -13 -4 -21 -8 -18 -5 2 -8 -5 -8 -16 0 -11 -4 -23 -10 -26
-16 -10 -13 -160 4 -174 23 -19 235 15 361 59 368 129 678 473 759 840 38 175
44 286 22 431 -47 312 -199 560 -483 789 -7 6 -16 10 -22 10 -5 0 -11 4 -13 8
-5 12 -75 63 -90 66 -7 1 -20 6 -28 11 -8 5 -22 10 -30 12 -8 1 -16 7 -18 13
-2 5 -8 8 -13 4 -5 -3 -9 0 -9 6 0 7 -6 10 -12 7 -7 -2 -26 3 -43 11 -16 9
-38 15 -49 13 -10 -1 -16 2 -12 7 3 5 -16 12 -42 16 -57 8 -87 14 -87 16 0 1
-9 3 -20 5 -11 2 -38 8 -60 13 -41 10 -192 22 -210 16z m-18 -20 c-3 -3 -12
-4 -19 -1 -8 3 -5 6 6 6 11 1 17 -2 13 -5z m200 0 c-3 -3 -12 -4 -19 -1 -8 3
-5 6 6 6 11 1 17 -2 13 -5z m108 -38 c192 -41 401 -141 524 -251 54 -47 151
-144 151 -150 0 -3 20 -31 45 -62 105 -137 180 -320 211 -521 16 -99 16 -126
5 -230 -18 -166 -54 -300 -113 -416 -32 -64 -149 -236 -173 -254 -12 -10 -24
-22 -26 -29 -12 -34 -176 -160 -299 -230 -106 -61 -275 -115 -400 -128 -36 -3
-73 -9 -84 -12 -17 -5 -18 0 -14 74 6 108 57 217 145 313 l32 34 118 1 c103 0
128 3 191 27 250 91 410 340 424 658 3 75 3 75 -22 73 -224 -15 -281 -28 -405
-90 -61 -31 -129 -76 -160 -108 -34 -34 -95 -116 -113 -150 -35 -71 -72 -204
-72 -262 0 -52 -3 -59 -47 -110 -27 -30 -58 -69 -71 -86 l-23 -32 3 195 c3
189 4 197 30 250 15 31 35 64 45 75 10 11 29 35 42 53 38 54 115 109 163 117
97 16 166 78 216 193 48 109 47 112 -40 112 -40 -1 -91 -7 -113 -15 -22 -8
-42 -15 -45 -15 -2 0 12 17 32 38 45 45 77 115 85 182 5 40 3 51 -11 56 -20 8
-110 -13 -159 -38 -81 -41 -155 -132 -157 -193 -1 -22 -74 -108 -84 -98 -17
17 -4 89 27 147 17 33 34 63 37 66 10 10 40 59 76 127 20 37 42 75 49 83 33
39 76 131 70 149 -11 36 -142 161 -190 181 -65 28 -164 27 -224 -2 -59 -29
-201 -170 -201 -201 0 -6 11 -27 24 -46 13 -20 49 -81 81 -136 32 -55 69 -118
83 -139 65 -103 82 -144 82 -196 l0 -53 -49 44 c-40 36 -50 52 -56 89 -21 125
-123 205 -270 212 l-50 3 -3 -37 c-3 -41 34 -140 75 -195 l24 -33 -26 10 c-32
12 -162 13 -169 1 -8 -13 22 -110 49 -157 45 -78 108 -116 226 -139 55 -10
180 -161 227 -274 20 -50 22 -70 22 -230 -1 -158 -2 -174 -16 -156 -8 11 -22
29 -31 40 -72 84 -78 98 -91 200 -26 213 -143 372 -355 485 -85 45 -177 67
-317 76 l-102 7 7 -79 c14 -153 102 -434 136 -434 5 0 9 -5 9 -11 0 -5 29 -38
64 -72 43 -43 89 -75 147 -103 110 -54 175 -68 288 -62 87 5 90 5 113 -21 90
-98 140 -207 146 -313 l5 -78 -39 0 c-109 0 -301 51 -423 112 -91 45 -213 123
-252 161 -116 111 -227 262 -275 374 -13 32 -29 66 -34 76 -12 20 -51 147 -70
227 -8 33 -14 114 -13 205 0 130 4 164 27 255 27 105 80 232 145 344 99 172
348 380 553 463 193 78 437 101 633 59z m100 -989 c-64 -39 -115 -128 -115
-200 0 -11 -28 -47 -63 -81 -35 -33 -71 -72 -80 -86 -15 -24 -16 -22 -16 56
-1 82 7 112 43 169 42 65 80 95 144 115 35 11 71 24 80 30 9 5 19 9 22 9 3 0
-4 -6 -15 -12z m-535 -32 c41 -8 98 -59 143 -129 28 -44 31 -58 34 -140 2 -65
0 -85 -7 -69 -5 13 -43 57 -85 99 -41 42 -75 85 -75 96 0 27 -27 87 -57 126
-22 29 -23 33 -7 29 11 -3 35 -9 54 -12z m-943 -207 c-3 -7 -5 -2 -5 12 0 14
2 19 5 13 2 -7 2 -19 0 -25z m970 -520 c-2 -13 -4 -3 -4 22 0 25 2 35 4 23 2
-13 2 -33 0 -45z m733 53 c-21 -7 -98 -30 -160 -48 -8 -2 -2 3 14 13 34 19
110 41 146 42 l25 0 -25 -7z"/>
<path d="M2273 3008 c-19 -24 -75 -129 -71 -133 2 -2 21 -5 43 -7 l40 -3 6 70
c5 72 0 96 -18 73z m-7 -126 c-4 -3 -12 0 -18 6 -9 9 -8 18 3 39 l14 27 3 -33
c2 -18 1 -36 -2 -39z"/>
<path d="M2330 2945 l0 -75 50 0 c49 0 50 1 39 22 -21 39 -79 128 -84 128 -3
0 -5 -34 -5 -75z m44 -12 c3 -10 9 -24 12 -30 4 -8 -2 -13 -15 -13 -17 0 -21
6 -21 30 0 33 14 40 24 13z"/>
<path d="M2429 2941 c12 -16 21 -33 21 -38 0 -4 7 -16 15 -26 10 -14 21 -17
44 -12 l30 6 -59 50 c-68 56 -80 61 -51 20z"/>
<path d="M2166 2943 c-13 -13 -16 -14 -11 -3 4 8 -8 -1 -28 -19 -44 -42 -46
-51 -9 -51 22 0 33 9 54 45 29 47 26 58 -6 28z"/>
<path d="M2110 2815 c0 -3 11 -23 25 -45 14 -22 25 -42 25 -45 0 -3 11 -22 23
-43 13 -20 41 -70 61 -109 21 -40 40 -73 42 -73 2 0 4 72 4 160 l0 160 -90 0
c-49 0 -90 -2 -90 -5z m160 -127 l0 -113 -60 104 c-33 57 -60 108 -60 113 0 4
27 8 60 8 l60 0 0 -112z"/>
<path d="M2330 2661 c0 -96 4 -162 10 -166 6 -3 10 1 10 9 0 18 95 201 116
227 8 8 14 20 14 26 0 6 7 16 15 23 8 7 15 19 15 26 0 11 -20 14 -90 14 l-90
0 0 -159z m139 117 c-6 -13 -17 -30 -24 -38 -7 -8 -31 -51 -54 -95 l-41 -80 0
118 0 117 65 0 c65 0 66 0 54 -22z"/>
<path d="M1933 2502 c26 -55 60 -92 102 -111 17 -7 38 -18 48 -23 27 -13 31
-5 17 37 -23 69 -95 132 -160 140 l-29 4 22 -47z m85 -10 c26 -17 68 -92 52
-92 -36 0 -87 44 -108 93 -12 27 -11 28 10 21 13 -4 33 -14 46 -22z"/>
<path d="M2613 2521 c-63 -30 -118 -84 -109 -108 3 -8 2 -11 -4 -8 -5 3 -8 -4
-7 -15 2 -25 26 -26 70 -4 38 19 108 84 102 94 -3 4 4 15 15 25 47 42 8 51
-67 16z m30 -28 c-13 -38 -95 -104 -110 -90 -10 10 19 49 59 77 47 34 60 37
51 13z"/>
<path d="M1830 2304 c0 -27 60 -104 101 -130 54 -33 99 -42 99 -19 0 30 -32
86 -64 110 -17 13 -55 30 -83 38 -47 14 -53 14 -53 1z m90 -41 c46 -24 80 -63
80 -93 0 -13 -51 12 -86 43 -24 20 -60 77 -50 77 2 0 27 -12 56 -27z"/>
<path d="M2729 2305 c-99 -27 -151 -72 -153 -132 -1 -38 -1 -38 38 -36 21 2
53 12 71 23 37 23 119 135 110 150 -7 11 -5 12 -66 -5z m4 -64 c-38 -58 -123
-105 -123 -68 0 25 65 87 105 101 22 7 41 12 43 11 1 -1 -10 -21 -25 -44z"/>
<path d="M1455 2089 c12 -42 60 -93 114 -122 29 -16 54 -27 57 -25 4 5 -142
149 -165 163 -10 6 -12 2 -6 -16z"/>
<path d="M3150 2100 c-36 -10 -100 -52 -130 -85 l-25 -28 30 18 c28 17 27 15
-10 -23 -44 -47 -43 -49 10 -26 62 25 113 64 135 101 25 43 23 52 -10 43z
m-20 -54 c0 -2 -8 -10 -17 -17 -16 -13 -17 -12 -4 4 13 16 21 21 21 13z"/>
<path d="M1610 2095 c0 -40 140 -228 158 -211 11 11 -42 107 -82 149 -46 49
-76 73 -76 62z m100 -120 c14 -19 14 -19 -2 -6 -10 7 -18 18 -18 24 0 6 1 8 3
6 1 -2 9 -13 17 -24z"/>
<path d="M2956 2058 c-31 -23 -56 -47 -56 -54 0 -6 -6 -14 -13 -17 -15 -6 -63
-95 -55 -102 11 -11 35 9 91 74 59 69 101 130 94 137 -2 3 -29 -14 -61 -38z"/>
<path d="M1780 2036 c0 -1 4 -16 9 -32 5 -16 17 -55 26 -86 16 -54 71 -145 81
-135 6 6 -14 96 -27 119 -5 10 -9 24 -9 31 0 18 -59 107 -71 107 -5 0 -9 -2
-9 -4z"/>
<path d="M2811 2014 c-33 -38 -61 -87 -61 -106 0 -10 -5 -18 -12 -18 -6 0 -9
-3 -5 -6 3 -3 -1 -24 -9 -47 -9 -27 -11 -44 -5 -50 7 -7 13 -4 17 9 4 10 16
31 26 46 10 14 18 31 18 38 0 6 15 45 34 86 36 77 35 92 -3 48z"/>
<path d="M1497 1923 c-10 -10 50 -43 123 -69 126 -43 189 -42 98 3 -47 23
-188 65 -188 56 0 -3 -6 0 -13 6 -8 6 -17 8 -20 4z"/>
<path d="M3055 1911 c-11 -5 -23 -7 -27 -4 -5 2 -8 0 -8 -5 0 -6 -8 -8 -18 -5
-36 9 -151 -62 -131 -81 7 -7 161 46 192 67 15 9 31 17 37 17 5 0 10 5 10 10
0 12 -27 12 -55 1z"/>
<path d="M1934 1883 c4 -9 9 -38 12 -63 11 -85 51 -171 101 -211 15 -13 16
-12 9 6 -4 11 -13 43 -21 70 -17 66 -55 165 -73 193 -17 26 -37 30 -28 5z m60
-138 c5 -19 4 -26 -2 -20 -6 6 -13 26 -16 45 -8 42 8 21 18 -25z"/>
<path d="M2664 1881 c4 -6 2 -11 -4 -11 -15 0 -51 -62 -45 -78 3 -7 1 -10 -4
-7 -5 3 -12 -3 -16 -13 -11 -36 -34 -167 -29 -171 2 -2 4 1 4 7 0 7 6 12 13
12 18 0 87 148 93 200 3 24 6 48 7 53 1 5 -4 12 -12 15 -8 3 -11 0 -7 -7z"/>
<path d="M1690 1790 c0 -4 -32 -7 -70 -6 -39 1 -70 -2 -70 -7 0 -17 170 -67
232 -67 24 -1 68 -9 98 -20 30 -10 57 -17 59 -14 6 6 -38 42 -60 49 -11 4 -19
10 -19 14 0 9 -63 32 -97 36 -14 1 -28 7 -32 12 -7 11 -41 13 -41 3z m43 -41
c-8 -8 -19 -8 -40 -1 -28 10 -28 10 12 11 28 1 36 -2 28 -10z m77 -9 c12 -8 9
-10 -12 -10 -15 0 -30 5 -33 10 -8 13 25 13 45 0z"/>
<path d="M2878 1783 c-10 -3 -18 -8 -18 -11 0 -4 -12 -7 -27 -8 -38 -1 -141
-52 -154 -75 -12 -23 -9 -23 61 -4 30 9 99 24 152 35 105 21 168 43 168 59 0
9 -145 12 -182 4z m47 -32 c-35 -14 -90 -22 -80 -12 10 10 44 18 80 19 l20 1
-20 -8z"/>
<path d="M1680 1661 c-24 -8 -24 -9 15 -26 22 -10 56 -22 75 -27 36 -9 47 -13
167 -47 121 -35 134 -26 45 31 -80 52 -240 88 -302 69z m164 -35 c56 -15 121
-45 98 -46 -7 0 -48 11 -90 24 -42 14 -86 27 -97 29 -15 4 -13 5 7 6 15 0 52
-5 82 -13z"/>
<path d="M657 2269 c-25 -15 -46 -68 -40 -101 8 -41 57 -82 99 -82 50 0 94 48
94 103 0 31 -6 44 -31 65 -33 28 -88 34 -122 15z m110 -31 c36 -41 3 -103 -64
-120 -50 -13 -87 79 -48 122 26 28 85 27 112 -2z"/>
<path d="M3854 2268 c-12 -5 -30 -28 -39 -49 l-18 -39 28 -40 c50 -73 98 -80
151 -24 45 47 46 93 5 135 -32 31 -84 38 -127 17z m116 -35 c12 -16 17 -29 11
-31 -6 -2 -11 -12 -11 -22 0 -19 -40 -53 -77 -64 -16 -5 -26 0 -42 23 -43 59
-13 121 59 121 30 0 43 -6 60 -27z"/>
</g>
</svg>
